<svg xmlns="http://www.w3.org/2000/svg" width="57.781" height="58" viewBox="0 0 57.781 58">
  <defs>
    <style>
      .cls-1 {
        fill: #d2d2d2;
        fill-rule: evenodd;
      }
    </style>
  </defs>
  <path id="poly-logo.svg" class="cls-1" d="M146.2,67.522c1.3,0.548,3.518,3.838,3.025,7.432a18.313,18.313,0,0,1-8.457,3.838V101.7h8.641c0,3.532-.555,6.335-1.172,7.371h-15.8V79.157H121.445V97.006c0,9.016-5.124,13.4-11.666,13.4a22.354,22.354,0,0,1-5.925-.792c-0.865-1.157-1.3-4.63-1.42-8.955,4.321,2.071,10.246,3.046,10.74-3.655V80.315c-6.605.67-9.012,5.239-11.3,8.285,0.061-4.082.247-7.8,0.493-10.3,4.506-4.812,9.568-7.066,19.568-7.066H136.2a15.58,15.58,0,0,0,10-3.716M125.889,61c-12.839,0-18.024.792-18.024,0.792-5.494.243-9.382,3.959-9.938,10.294,0,0-.926,8.284-0.926,17.91s0.926,17.91.926,17.91c0.555,6.335,4.444,10.112,9.938,10.3,0,0,5.186.793,18.025,0.793s18.024-.793,18.024-0.793c5.493-.244,9.383-3.959,9.938-10.3A173.272,173.272,0,0,0,154.778,90c0-9.564-.926-17.91-0.926-17.91-0.555-6.335-4.444-10.112-9.938-10.3,0-.061-5.186-0.791-18.025-0.791" transform="translate(-97 -61)"/>
</svg>
